<svg width="59" height="32" viewBox="0 0 59 32" fill="none" xmlns="http://www.w3.org/2000/svg">
<g filter="url(#filter0_d_3223_97)">
<rect x="4" y="2" width="51" height="24" rx="3" fill="#E74040"/>
<path d="M18.5628 10.908C18.1988 10.908 17.9095 10.9967 17.6948 11.174C17.4895 11.342 17.3868 11.5707 17.3868 11.86C17.3868 12.14 17.5128 12.364 17.7648 12.532C18.0261 12.7 18.6188 12.9007 19.5428 13.134C20.4761 13.358 21.1995 13.6987 21.7128 14.156C22.2261 14.6133 22.4828 15.2807 22.4828 16.158C22.4828 17.0353 22.1515 17.7493 21.4888 18.3C20.8355 18.8413 19.9721 19.112 18.8988 19.112C17.3495 19.112 15.9541 18.538 14.7128 17.39L16.0148 15.794C17.0695 16.718 18.0448 17.18 18.9408 17.18C19.3421 17.18 19.6548 17.096 19.8788 16.928C20.1121 16.7507 20.2288 16.5173 20.2288 16.228C20.2288 15.9293 20.1075 15.696 19.8648 15.528C19.6221 15.3507 19.1415 15.1733 18.4228 14.996C17.2841 14.7253 16.4488 14.3753 15.9168 13.946C15.3941 13.5073 15.1328 12.826 15.1328 11.902C15.1328 10.9687 15.4641 10.25 16.1268 9.746C16.7988 9.242 17.6341 8.99 18.6328 8.99C19.2861 8.99 19.9395 9.102 20.5928 9.326C21.2461 9.55 21.8155 9.86733 22.3008 10.278L21.1948 11.874C20.3455 11.23 19.4681 10.908 18.5628 10.908ZM30.7285 19H28.7545V18.09C28.2132 18.7713 27.5412 19.112 26.7385 19.112C25.9452 19.112 25.2779 18.8833 24.7365 18.426C24.1952 17.9593 23.9245 17.3433 23.9245 16.578C23.9245 15.8033 24.2045 15.2247 24.7645 14.842C25.3245 14.4593 26.0899 14.268 27.0605 14.268H28.6285V14.226C28.6285 13.4233 28.2039 13.022 27.3545 13.022C26.9905 13.022 26.6032 13.0967 26.1925 13.246C25.7912 13.386 25.4505 13.5633 25.1705 13.778L24.2325 12.42C25.2219 11.7013 26.3512 11.342 27.6205 11.342C28.5352 11.342 29.2819 11.5707 29.8605 12.028C30.4392 12.4853 30.7285 13.2087 30.7285 14.198V19ZM28.6145 16.13V15.766H27.2985C26.4585 15.766 26.0385 16.0273 26.0385 16.55C26.0385 16.8207 26.1365 17.0307 26.3325 17.18C26.5379 17.32 26.8272 17.39 27.2005 17.39C27.5739 17.39 27.9005 17.278 28.1805 17.054C28.4699 16.8207 28.6145 16.5127 28.6145 16.13ZM34.943 19H32.843V8.612H34.943V19ZM43.6549 17.908C42.8056 18.7107 41.8069 19.112 40.6589 19.112C39.5202 19.112 38.5776 18.762 37.8309 18.062C37.0842 17.3527 36.7109 16.4053 36.7109 15.22C36.7109 14.0347 37.0889 13.092 37.8449 12.392C38.6102 11.692 39.5109 11.342 40.5469 11.342C41.5829 11.342 42.4602 11.6547 43.1789 12.28C43.9069 12.9053 44.2709 13.764 44.2709 14.856V15.976H38.7829C38.8482 16.3867 39.0629 16.7227 39.4269 16.984C39.7909 17.2453 40.2016 17.376 40.6589 17.376C41.3962 17.376 42.0029 17.1287 42.4789 16.634L43.6549 17.908ZM42.1429 14.478C42.0962 14.03 41.9282 13.6847 41.6389 13.442C41.3496 13.1993 40.9949 13.078 40.5749 13.078C40.1642 13.078 39.7862 13.204 39.4409 13.456C39.0956 13.708 38.8949 14.0487 38.8389 14.478H42.1429Z" fill="white"/>
</g>
<defs>
<filter id="filter0_d_3223_97" x="0" y="0" width="59" height="32" filterUnits="userSpaceOnUse" color-interpolation-filters="sRGB">
<feFlood flood-opacity="0" result="BackgroundImageFix"/>
<feColorMatrix in="SourceAlpha" type="matrix" values="0 0 0 0 0 0 0 0 0 0 0 0 0 0 0 0 0 0 127 0" result="hardAlpha"/>
<feOffset dy="2"/>
<feGaussianBlur stdDeviation="2"/>
<feColorMatrix type="matrix" values="0 0 0 0 0 0 0 0 0 0 0 0 0 0 0 0 0 0 0.1 0"/>
<feBlend mode="normal" in2="BackgroundImageFix" result="effect1_dropShadow_3223_97"/>
<feBlend mode="normal" in="SourceGraphic" in2="effect1_dropShadow_3223_97" result="shape"/>
</filter>
</defs>
</svg>
